<svg id="Capa_1" enable-background="new 0 0 497 497" height="512" viewBox="0 0 497 497" width="512" xmlns="http://www.w3.org/2000/svg"><g><path d="m489.5 497h-22.5l-60-218.5 60-278.5h22.5c4.142 0 7.5 3.358 7.5 7.5v482c0 4.142-3.358 7.5-7.5 7.5z" fill="#95b0ed"/><path d="m467 497h-30l-60-218.5 60-278.5h30z" fill="#7d8fe5"/><path d="m437 497h-324.5c-4.142 0-7.5-3.358-7.5-7.5v-97.5h332z" fill="#95b0ed"/><path d="m317 262-212 130h-81.749c-4.685 0-8.297 4.263-7.38 8.857 4.114 20.611 22.308 36.143 44.129 36.143h302z" fill="#acd2f6"/><path d="m317 262v130c0 24.853 20.147 45 45 45h30v-175z" fill="#95b0ed"/><path d="m407 0-30 434.429c4.693 1.659 9.739 2.571 15 2.571 24.853 0 45-20.147 45-45v-392z" fill="#acd2f6"/><path d="m105 7.5v384.5h242c0 19.592 12.524 36.25 30 42.429 17.476-6.179 30-22.837 30-42.429v-30-332-30h-294.5c-4.142 0-7.5 3.358-7.5 7.5z" fill="#c4f3ff"/><circle cx="407" cy="253.2" fill="#4e4cd3" r="7.5"/><circle cx="407" cy="307.6" fill="#4e4cd3" r="7.5"/><circle cx="407" cy="198.8" fill="#4e4cd3" r="7.5"/><circle cx="407" cy="144.4" fill="#4e4cd3" r="7.5"/><path d="m377 30h-121l-31.982 105 152.982-45z" fill="#ff545a"/><path d="m135 30v60l121 45v-105z" fill="#ff7647"/><path d="m256 90-47.974 128.5 47.974 143.5h121v-272z" fill="#ffe7b5"/><path d="m135 90h121v272h-121z" fill="#fff"/><path d="m105 121.333v210c57.99 0 105-47.01 105-105s-47.01-105-105-105z" fill="#95b0ed"/><path d="m180 226.333c0-57.99-33.579-105-75-105-57.99 0-105 47.01-105 105s47.01 105 105 105c41.421 0 75-47.01 75-105z" fill="#acd2f6"/><g fill="#4e4cd3"><circle cx="105" cy="301.333" r="7.5"/><circle cx="142.5" cy="291.285" r="7.5"/><circle cx="67.5" cy="161.381" r="7.5"/><circle cx="169.952" cy="263.833" r="7.5"/><circle cx="40.048" cy="188.833" r="7.5"/><circle cx="30" cy="226.333" r="7.5"/><circle cx="169.952" cy="188.833" r="7.5"/><circle cx="40.048" cy="263.833" r="7.5"/><circle cx="142.5" cy="161.381" r="7.5"/><circle cx="67.5" cy="291.285" r="7.5"/></g><path d="m180 233.833h-75c-4.142 0-7.5-3.357-7.5-7.5v-75c0-4.143 3.358-7.5 7.5-7.5s7.5 3.357 7.5 7.5v67.5h67.5c4.142 0 7.5 3.357 7.5 7.5s-3.358 7.5-7.5 7.5z" fill="#4a36b5"/></g></svg>